<svg width="137" height="49" viewBox="0 0 137 49" fill="none" xmlns="http://www.w3.org/2000/svg">
<path d="M38.4029 30.1729C39.9085 28.6622 40.754 26.6156 40.754 24.4821C40.754 22.3485 39.9085 20.302 38.4029 18.7913C34.3333 14.7187 31.0869 18.1455 27.0296 14.073C22.9722 10.0004 26.3719 6.74181 22.3021 2.66673C20.7772 1.23333 18.7544 0.450348 16.6624 0.483689C14.5705 0.517029 12.5737 1.36407 11.0951 2.84534C9.61647 4.32662 8.77219 6.32576 8.74112 8.41927C8.71012 10.5127 9.49468 12.5361 10.9288 14.0606C14.9886 18.1233 18.2325 14.7063 22.3021 18.779C23.0498 19.5271 23.6429 20.4152 24.0476 21.3927C24.4522 22.3702 24.6605 23.4178 24.6605 24.4759C24.6605 25.5339 24.4522 26.5816 24.0476 27.5591C23.6429 28.5366 23.0498 29.4247 22.3021 30.1729C18.2325 34.2454 14.9886 30.8186 10.9288 34.8912C9.53096 36.4222 8.77698 38.4336 8.8237 40.5068C8.87041 42.58 9.71419 44.5554 11.1795 46.0217C12.6448 47.4881 14.6188 48.3325 16.6906 48.3792C18.7623 48.426 20.7723 47.6715 22.3021 46.2727C26.3719 42.2001 22.95 38.9514 27.0196 34.8912C31.0894 30.8309 34.3333 34.2454 38.4029 30.1729Z" fill="white"/>
<path d="M8.05041 16.4211C6.45815 16.4211 4.90174 16.8937 3.57784 17.7789C2.25395 18.664 1.22212 19.9223 0.612802 21.3943C0.00348488 22.8664 -0.155934 24.4862 0.154689 26.0489C0.465312 27.6116 1.23204 29.0471 2.3579 30.1738C3.48377 31.3005 4.91825 32.0677 6.47986 32.3786C8.04148 32.6894 9.6601 32.5299 11.1311 31.9202C12.6022 31.3104 13.8595 30.2778 14.7441 28.953C15.6286 27.6282 16.1008 26.0706 16.1008 24.4773C16.1008 22.3406 15.2526 20.2915 13.7429 18.7807C12.2332 17.27 10.1855 16.4211 8.05041 16.4211Z" fill="white"/>
<path d="M52.4713 11.5723V19.4898H55.8561V21.5212H50.2139V11.5723H52.4713Z" fill="white"/>
<path d="M63.8689 18.1217C63.8689 20.1258 62.2049 21.7365 60.0316 21.7365C57.7619 21.7365 56.1943 20.1258 56.1943 18.1217C56.1943 16.1175 57.7322 14.5093 60.0316 14.5093C62.1679 14.5093 63.8689 16.1175 63.8689 18.1217ZM61.6115 18.1217C61.6115 17.809 61.5189 17.5033 61.3453 17.2434C61.1717 16.9833 60.9249 16.7807 60.6362 16.661C60.3476 16.5414 60.0298 16.5101 59.7234 16.571C59.4169 16.632 59.1354 16.7826 58.9145 17.0037C58.6935 17.2248 58.543 17.5066 58.4821 17.8132C58.4211 18.12 58.4524 18.4379 58.5719 18.7267C58.6915 19.0156 58.894 19.2626 59.1538 19.4363C59.4137 19.61 59.7192 19.7027 60.0316 19.7027C60.2392 19.7031 60.4448 19.6624 60.6366 19.583C60.8285 19.5037 61.0028 19.3873 61.1495 19.2404C61.2963 19.0935 61.4127 18.9191 61.4919 18.7271C61.5712 18.5352 61.6119 18.3294 61.6115 18.1217Z" fill="white"/>
<path d="M71.2047 17.6711V21.5087H68.9474V17.9012C68.9474 16.7706 68.312 16.5454 67.8199 16.5454C67.3279 16.5454 66.69 16.9685 66.69 18.1264V21.5087H64.4326V14.7342H66.69V15.4122C66.8922 15.1228 67.1634 14.8887 67.4791 14.7309C67.7947 14.5732 68.1447 14.4969 68.4973 14.5091C69.9215 14.5091 71.2047 15.5532 71.2047 17.6711Z" fill="white"/>
<path d="M79.4434 11.1199V21.5116H77.1861V20.8337C76.9375 21.1243 76.6275 21.3561 76.2789 21.5123C75.9296 21.6684 75.5503 21.7452 75.1681 21.7368C73.2372 21.7368 71.7686 20.1261 71.7686 18.1219C71.7686 16.1178 73.2372 14.5095 75.1681 14.5095C75.551 14.5005 75.9303 14.5769 76.2789 14.7331C76.6282 14.8893 76.9382 15.1214 77.1861 15.4127V11.1199H79.4434ZM77.1861 18.1219C77.1861 17.8092 77.0932 17.5035 76.9197 17.2435C76.7461 16.9836 76.4996 16.7809 76.2103 16.6612C75.9217 16.5416 75.6046 16.5103 75.2981 16.5713C74.9917 16.6323 74.7095 16.7828 74.4888 17.004C74.268 17.2251 74.1173 17.5068 74.0566 17.8135C73.9959 18.1202 74.0266 18.4381 74.1466 18.727C74.2659 19.0159 74.4688 19.2628 74.7281 19.4365C74.9881 19.6103 75.2938 19.703 75.606 19.703C75.8139 19.7033 76.0189 19.6626 76.211 19.5833C76.4032 19.504 76.5775 19.3875 76.7239 19.2406C76.8704 19.0937 76.9868 18.9193 77.0661 18.7274C77.1454 18.5354 77.1861 18.3296 77.1861 18.1219Z" fill="white"/>
<path d="M87.6825 18.1217C87.6825 20.1258 86.0181 21.7365 83.8472 21.7365C81.5749 21.7365 80.0098 20.1258 80.0098 18.1217C80.0098 16.1175 81.5477 14.5093 83.8472 14.5093C85.9909 14.5093 87.6825 16.1175 87.6825 18.1217ZM85.4273 18.1217C85.4273 17.809 85.3344 17.5033 85.1609 17.2434C84.9873 16.9833 84.7408 16.7807 84.4522 16.661C84.1629 16.5414 83.8458 16.5101 83.5393 16.571C83.2329 16.632 82.9514 16.7826 82.73 17.0037C82.5092 17.2248 82.3585 17.5066 82.2978 17.8132C82.2371 18.12 82.2678 18.4379 82.3878 18.7267C82.5071 19.0156 82.71 19.2626 82.9693 19.4363C83.2293 19.61 83.535 19.7027 83.8472 19.7027C84.0551 19.7031 84.2608 19.6624 84.4522 19.583C84.6444 19.5037 84.8187 19.3873 84.9651 19.2404C85.1123 19.0935 85.228 18.9191 85.3073 18.7271C85.3866 18.5352 85.4273 18.3294 85.4273 18.1217Z" fill="white"/>
<path d="M95.02 17.6712V21.5087H92.7627V17.9012C92.7627 16.7706 92.1276 16.5454 91.6333 16.5454C91.1383 16.5454 90.5054 16.9685 90.5054 18.1264V21.5087H88.248V14.7342H90.5054V15.4122C90.7075 15.1228 90.9783 14.8887 91.2933 14.7309C91.6083 14.5732 91.9583 14.4969 92.3105 14.5091C93.7349 14.5091 95.02 15.5532 95.02 17.6712Z" fill="white"/>
<path d="M107.662 21.7364L105.617 16.7533L103.37 21.7364L98.8574 11.5723H101.33L103.37 16.6642L104.527 14.1083L103.538 11.5821H105.739L107.662 16.6642L109.692 11.5821H112.177L107.662 21.7364Z" fill="white"/>
<path d="M115.448 21.5086V20.9445C115.218 21.202 114.935 21.4062 114.618 21.5429C114.301 21.6797 113.958 21.7457 113.613 21.7362C112.033 21.7362 111.158 20.6352 111.158 19.3783C111.158 17.5301 113.431 16.8101 115.418 17.4163C115.391 16.8224 114.996 16.3721 114.206 16.3721C113.653 16.3917 113.112 16.5418 112.627 16.8101L111.949 15.1795C112.739 14.7263 113.636 14.493 114.546 14.504C116.194 14.504 117.705 15.4343 117.705 17.968V21.5086H115.448ZM113.416 19.4204C113.417 19.5226 113.44 19.6234 113.481 19.7168C113.523 19.8101 113.583 19.894 113.658 19.9633C113.734 20.0327 113.822 20.0861 113.918 20.1204C114.015 20.1546 114.117 20.169 114.219 20.1626C114.728 20.1626 115.349 19.7396 115.455 18.8339C114.39 18.5024 113.416 18.6583 113.416 19.4204Z" fill="white"/>
<path d="M124.363 19.3637C124.363 20.6776 123.333 21.7365 121.231 21.7365C120.148 21.7615 119.093 21.3903 118.264 20.6924L119.167 18.9976C119.655 19.4215 120.257 19.6955 120.897 19.7869C121.7 19.8735 122.096 19.7325 122.096 19.4627C122.096 19.1386 121.715 19.0965 121.065 18.9679C118.823 18.5324 118.593 17.4833 118.593 16.7114C118.593 15.5683 119.567 14.5093 121.456 14.5093C122.285 14.5349 123.092 14.7781 123.797 15.2145L122.937 16.8945C122.555 16.5986 122.094 16.4214 121.612 16.3848C121.132 16.3427 120.85 16.4565 120.85 16.6322C120.85 16.8573 120.991 16.9291 121.555 17.0281C123.164 17.3028 124.363 17.9806 124.363 19.3637Z" fill="white"/>
<path d="M125.83 16.766H124.702V14.7346H125.83V12.7057L128.087 12.0303V14.752H129.892V16.7833H128.087V21.5091H125.83V16.766Z" fill="white"/>
<path d="M135.395 19.1114L136.553 20.6206C136.187 20.9799 135.755 21.2635 135.28 21.455C134.805 21.6465 134.297 21.7422 133.786 21.7365C131.432 21.7365 130.005 20.1258 130.005 18.1217C130.005 16.1175 131.432 14.5093 133.786 14.5093C134.76 14.5093 136.48 14.9745 137 17.2186L132.994 19.6186C133.214 19.7227 133.457 19.7711 133.699 19.7596C134.325 19.763 134.93 19.5317 135.395 19.1114ZM132.181 18.2504L134.522 16.8524C134.44 16.7328 134.329 16.6362 134.199 16.5716C134.069 16.5071 133.925 16.4769 133.781 16.4838C132.827 16.4838 132.038 17.1914 132.179 18.2504H132.181Z" fill="white"/>
<path d="M59.5427 33.9022H57.2234V29.0353L54.8993 31.6333L52.5653 29.0353V33.8923H50.2412V23.738L54.8919 28.5949L59.5427 23.738V33.9022Z" fill="white"/>
<path d="M65.3533 33.9022V33.3381C65.113 33.597 64.8202 33.8014 64.4943 33.9376C64.1685 34.0737 63.8173 34.1385 63.4643 34.1274C61.8374 34.1274 60.9375 33.0264 60.9375 31.7695C60.9375 29.9211 63.2765 29.2011 65.3261 29.8073C65.2965 29.216 64.8885 28.7632 64.075 28.7632C63.5066 28.7839 62.9502 28.9337 62.4482 29.2011L61.7509 27.5781C62.5671 27.1215 63.4888 26.8878 64.4237 26.9001C66.1247 26.9001 67.6799 27.8329 67.6799 30.3641V33.8923L65.3533 33.9022ZM63.2616 31.8115C63.265 31.9154 63.2893 32.0176 63.3332 32.1119C63.3772 32.2061 63.4398 32.2904 63.5172 32.3598C63.5946 32.4292 63.6852 32.4822 63.7836 32.5155C63.8821 32.5488 63.9863 32.5619 64.0899 32.5538C64.6141 32.5538 65.252 32.1307 65.3533 31.2276C64.263 30.8961 63.2616 31.0495 63.2616 31.8115Z" fill="white"/>
<path d="M76.1651 30.0622V33.9022H73.8414V30.2873C73.8414 29.159 73.1856 28.9338 72.6763 28.9338C72.1669 28.9338 71.5148 29.357 71.5148 30.5149V33.9022H69.1904V27.1252H71.5148V27.7982C71.7269 27.5066 72.0069 27.2718 72.3312 27.1143C72.6555 26.9569 73.0134 26.8816 73.3742 26.8951C74.8421 26.9 76.1651 27.9442 76.1651 30.0622Z" fill="white"/>
<path d="M81.7453 33.9022V33.3381C81.5053 33.597 81.2124 33.8014 80.8867 33.9376C80.5602 34.0737 80.2095 34.1385 79.8566 34.1274C78.2272 34.1274 77.3271 33.0264 77.3271 31.7695C77.3271 29.9211 79.6659 29.2011 81.7161 29.8073C81.686 29.216 81.2803 28.7632 80.4645 28.7632C79.8966 28.7842 79.3402 28.9339 78.838 29.2011L78.1408 27.5781C78.9566 27.1215 79.8788 26.8878 80.8131 26.9001C82.5147 26.9001 84.0698 27.8329 84.0698 30.3641V33.8923L81.7453 33.9022ZM79.6516 31.8115C79.6545 31.9154 79.6788 32.0176 79.723 32.1119C79.7666 32.2061 79.8295 32.2904 79.9066 32.3598C79.9845 32.4292 80.0752 32.4822 80.1731 32.5155C80.2717 32.5488 80.3759 32.5619 80.4795 32.5538C81.0039 32.5538 81.6439 32.1307 81.7453 31.2276C80.6553 30.8961 79.6516 31.0495 79.6516 31.8115Z" fill="white"/>
<path d="M93.1358 27.1256V33.3384C93.1358 36.3075 91.4643 37.7425 88.9527 37.7425C87.944 37.7652 86.9568 37.4471 86.151 36.8395L87.0804 35.1446C87.584 35.5095 88.1898 35.7068 88.8112 35.7087C90.0478 35.7087 90.8021 34.8477 90.8021 33.6056V33.2246C90.5414 33.5171 90.2206 33.7494 89.8613 33.9053C89.5027 34.0613 89.1141 34.1371 88.7227 34.1277C86.7318 34.1277 85.2217 32.5194 85.2217 30.5153C85.2217 28.5112 86.7318 26.9004 88.7227 26.9004C89.1141 26.891 89.5027 26.9669 89.8613 27.1228C90.2206 27.2787 90.5414 27.5111 90.8021 27.8036V27.1256H93.1358ZM90.8114 30.5153C90.8214 30.1908 90.7342 29.8707 90.5614 29.5961C90.3885 29.3215 90.1371 29.1048 89.8406 28.9739C89.5434 28.8429 89.2141 28.8036 88.8948 28.861C88.5755 28.9184 88.2805 29.0699 88.0483 29.2961C87.8154 29.5223 87.6554 29.8129 87.5883 30.1306C87.5219 30.4483 87.5511 30.7788 87.6733 31.0796C87.7954 31.3803 88.0047 31.6378 88.2741 31.8189C88.5434 32.0001 88.8605 32.0967 89.1848 32.0963C89.6092 32.103 90.0192 31.9407 90.3242 31.6452C90.6292 31.3497 90.8042 30.945 90.8114 30.5203V30.5153Z" fill="white"/>
<path d="M99.8511 31.5098L101.04 33.0191C100.273 33.7487 99.2504 34.1491 98.1917 34.135C95.7665 34.135 94.2979 32.5267 94.2979 30.5226C94.2979 28.5184 95.7665 26.9077 98.1917 26.9077C99.1961 26.9077 100.968 27.3729 101.508 29.617L97.3788 32.017C97.606 32.1206 97.8553 32.1689 98.1053 32.1581C98.7468 32.1619 99.3675 31.9314 99.8511 31.5098ZM96.5352 30.6414L98.9482 29.2434C98.8625 29.1242 98.7489 29.0283 98.6168 28.9644C98.4846 28.9005 98.3382 28.8705 98.1917 28.8772C97.2052 28.8772 96.3916 29.5824 96.5352 30.6414Z" fill="white"/>
<path d="M113.364 30.0622V33.9022H111.04V30.2873C111.04 29.159 110.619 28.9339 110.11 28.9339C109.6 28.9339 109.064 29.2432 109.064 30.5149V33.9022H106.737V30.2873C106.737 29.159 106.317 28.9339 105.808 28.9339C105.299 28.9339 104.762 29.2432 104.762 30.5149V33.9022H102.436V27.1252H104.762V27.7982C105.256 27.2341 105.722 26.8951 106.564 26.8951C106.928 26.8815 107.289 26.9581 107.617 27.1183C107.944 27.2784 108.226 27.5172 108.438 27.813C108.72 27.5147 109.06 27.2787 109.439 27.1206C109.817 26.9624 110.224 26.8856 110.634 26.8951C112.113 26.9 113.364 27.9442 113.364 30.0622Z" fill="white"/>
<path d="M120.079 31.5098L121.268 33.0191C120.5 33.7487 119.478 34.1491 118.419 34.135C115.994 34.135 114.525 32.5267 114.525 30.5226C114.525 28.5184 115.994 26.9077 118.419 26.9077C119.424 26.9077 121.196 27.3729 121.735 29.617L117.606 32.017C117.834 32.1206 118.083 32.1689 118.333 32.1581C118.974 32.1619 119.595 31.9314 120.079 31.5098ZM116.763 30.6487L119.176 29.2508C119.09 29.1317 118.976 29.0357 118.844 28.9718C118.712 28.9079 118.566 28.8779 118.419 28.8846C117.433 28.8772 116.62 29.5824 116.763 30.6414V30.6487Z" fill="white"/>
<path d="M129.639 30.0622V33.9022H127.312V30.2873C127.312 29.1591 126.66 28.934 126.151 28.934C125.642 28.934 124.989 29.357 124.989 30.515V33.9022H122.662V27.1253H124.989V27.7983C125.201 27.5066 125.481 27.2716 125.805 27.1141C126.13 26.9566 126.487 26.8814 126.848 26.8951C128.317 26.9001 129.639 27.9443 129.639 30.0622Z" fill="white"/>
<path d="M131.848 29.1591H130.686V27.1253H131.848V25.094L134.172 24.416V27.1377H136.034V29.1715H134.172V33.9146H131.848V29.1591Z" fill="white"/>
</svg>
